<svg id="レイヤー_2" data-name="レイヤー 2" xmlns="http://www.w3.org/2000/svg" width="282.238" height="41.814" viewBox="0 0 282.238 41.814">
  <g id="グループ_564358" data-name="グループ 564358" transform="translate(0)">
    <g id="グループ_564354" data-name="グループ 564354" transform="translate(189.178 7.777)">
      <path id="パス_1088844" data-name="パス 1088844" d="M846.651,55.854a4.736,4.736,0,0,0-.4.991,14.973,14.973,0,0,1-4.2,7.186,9.877,9.877,0,0,1-6.777,2.49q-7.017,0-7.017-6.082l.2-14.627a8.329,8.329,0,0,0-.114-1.471h3.565a10.529,10.529,0,0,0-.169,1.245l-.114,5.715q-.086,5.263-.085,9.027a4.41,4.41,0,0,0,1.259,3.367,4.844,4.844,0,0,0,3.467,1.188,7.7,7.7,0,0,0,4.824-1.67,10.373,10.373,0,0,0,3.239-4.132,10.424,10.424,0,0,0,1.076-3.623l1.245.4ZM838.7,45.073h1.613v3.508H838.7Zm3.255,0h1.613v3.508h-1.613Z" transform="translate(-828.26 -41.99)"/>
      <path id="パス_1088845" data-name="パス 1088845" d="M924.494,80.258a3.28,3.28,0,0,0-.085-.877l-2.378-10.468-3.565.763a3.447,3.447,0,0,0-1.076.368l-.311-1.329a5.785,5.785,0,0,0,1.188-.112l3.536-.763a26.76,26.76,0,0,0-1.13-4.075l2.688-.624a39.1,39.1,0,0,0,.961,4.187l3.623-.85a16.309,16.309,0,0,1,3.481-.537,4.6,4.6,0,0,1,3.239,1.131,4,4,0,0,1,1.231,3.1,4.1,4.1,0,0,1-1.343,3.184,4.7,4.7,0,0,1-3.268,1.217,7.586,7.586,0,0,1-2.136-.27,7.858,7.858,0,0,0-1.259-.3l.254-.991a5.141,5.141,0,0,0,2.334.537,2.493,2.493,0,0,0,2.01-.891,3.636,3.636,0,0,0,.749-2.419,2.951,2.951,0,0,0-.793-2.263,2.892,2.892,0,0,0-2.051-.735,14.572,14.572,0,0,0-3.323.509l-2.519.624,2.378,10.3a3.247,3.247,0,0,0,.341.962l-2.773.624Zm6.423-16.665L929.7,65.432a10.226,10.226,0,0,0-2.689-1.953,10.6,10.6,0,0,0-2.547-.991l.651-1.188a4.343,4.343,0,0,0,.934.311,15.313,15.313,0,0,1,4.867,1.98Z" transform="translate(-896.793 -55.076)"/>
      <path id="パス_1088846" data-name="パス 1088846" d="M1020.92,37.106a27.481,27.481,0,0,0-.553,4.739q-.271,3.919-.269,8.983a39.5,39.5,0,0,0,.4,6.932l-3.255.368a10.3,10.3,0,0,0-.057-1.16,58.432,58.432,0,0,1-.254-6.126q0-3.834.142-6.551t.226-3.677l.283-3.029c.037-.452.057-.774.057-.962Zm13.072-.566a2.991,2.991,0,0,1,1.1-1.8,3.254,3.254,0,0,1,2.078-.692,2.932,2.932,0,0,1,2.135.934,3.17,3.17,0,0,1-2.236,5.406,2.987,2.987,0,0,1-2.517-1.3V41.8h3.594a7.241,7.241,0,0,0,1.414-.142v1.414a7.261,7.261,0,0,0-1.414-.142h-3.594V51.4a39.213,39.213,0,0,1,3.721,1.852q1.258.75,1.825,1L1038.49,57a28.012,28.012,0,0,0-3.933-3.225v.85a3.574,3.574,0,0,1-1.514,3.127,7.2,7.2,0,0,1-4.187,1.062,6.865,6.865,0,0,1-4.23-1.174,3.711,3.711,0,0,1-1.556-3.113,3.957,3.957,0,0,1,1.457-3.168,5.965,5.965,0,0,1,3.974-1.231,11.477,11.477,0,0,1,2.887.368V42.937h-6.537a7.242,7.242,0,0,0-1.414.142V41.665a7.24,7.24,0,0,0,1.414.142h6.537V37.958a7.26,7.26,0,0,0-.142-1.414h2.745Zm-2.6,15.648a7.866,7.866,0,0,0-3.451-.82,3.966,3.966,0,0,0-2.716.85,2.9,2.9,0,0,0-.962,2.291,2.77,2.77,0,0,0,1.117,2.307,4.423,4.423,0,0,0,2.787.863q3.224,0,3.225-3.083V52.19Zm3.423-14.968a2.269,2.269,0,1,0,.665-1.6A2.178,2.178,0,0,0,1034.812,37.22Z" transform="translate(-973.837 -34.05)"/>
      <path id="パス_1088847" data-name="パス 1088847" d="M1152.049,53a6.253,6.253,0,0,0-.395,1.019q-1.415,5.177-3.212,7.06a5.946,5.946,0,0,1-4.483,1.882,4.1,4.1,0,0,1-2.942-1.019A3.617,3.617,0,0,1,1140,59.06l.142-5.546q.086-2.689-1.868-2.688a3.932,3.932,0,0,0-2.746,1.613,23.452,23.452,0,0,0-3.269,5.687q-1.826,4.074-1.939,4.554l-3.029-1.414a24.252,24.252,0,0,0,1.217-2.291q.935-1.895,2.773-6.028t3.424-7.853q1.583-3.721,1.852-4.456a5.167,5.167,0,0,0,.3-1.019l3.2,1.272a6.381,6.381,0,0,0-.566,1.046q-1.388,3.4-4.217,9.28a5.723,5.723,0,0,1,4.132-1.64,3.969,3.969,0,0,1,2.887,1.1,3.574,3.574,0,0,1,1.076,2.8l-.141,5.292q-.028,2.039,1.838,2.037a3.816,3.816,0,0,0,2.7-1.147,9.757,9.757,0,0,0,2.136-3.495,13.288,13.288,0,0,0,1.019-3.536l1.13.368Z" transform="translate(-1058.989 -38.348)"/>
    </g>
    <g id="グループ_564355" data-name="グループ 564355" transform="translate(50.718 3.997)">
      <path id="パス_1088848" data-name="パス 1088848" d="M252.359,41.716a66,66,0,0,0-5.167-5.283,33.153,33.153,0,0,1-16.852,11.3l-1.08-1.272a31.179,31.179,0,0,0,14.5-13.072,71.467,71.467,0,0,0-9.563-6.208l.539-1.311a84.96,84.96,0,0,1,10.6,4.4A44.564,44.564,0,0,0,248.848,17.5l6.055,1.466a41.98,41.98,0,0,1-5.014,13.65,70.213,70.213,0,0,1,6.286,4.011Z" transform="translate(-229.26 -17.5)" fill="#333"/>
      <path id="パス_1088849" data-name="パス 1088849" d="M385.186,39.561a29.129,29.129,0,0,0-7.866-9.216l.964-1.195a57.762,57.762,0,0,1,11.3,5.091l-4.4,5.322Zm20.977-3.433c-3.394,9.641-12.03,18.238-27.185,19.744L377.59,50.4c14.652-.733,22.866-6.555,26.954-15.155Z" transform="translate(-343.502 -26.489)" fill="#333"/>
      <path id="パス_1088850" data-name="パス 1088850" d="M504.27,61.451V59.677h13.958V42.9H508.9V41.13h24.64V42.9h-9.525V59.679h14.113v1.775H504.27Z" transform="translate(-441.456 -35.733)" fill="#333"/>
      <path id="パス_1088851" data-name="パス 1088851" d="M688.732,57.114a43.63,43.63,0,0,0-9.949-10.6,38.979,38.979,0,0,1-17,10.641l-.847-1.35c10.758-5.091,16.7-13.227,19.435-23.521H666.521V30.66H686.5v1.658A35.362,35.362,0,0,1,679.94,45.2a73.468,73.468,0,0,1,12.8,6.747l-4.011,5.167Z" transform="translate(-562.333 -27.654)" fill="#333"/>
    </g>
    <g id="グループ_564357" data-name="グループ 564357">
      <path id="パス_1088852" data-name="パス 1088852" d="M47.61,41.814,30.655,32.445c-.491-1.359.674-2.1,1.5-1.642l15.436,8.529,15.662-8.974V2.163H31.729C30.644,1.211,31.3,0,32.25,0H65.414V31.612Z" transform="translate(-23.566)"/>
      <g id="グループ_564356" data-name="グループ 564356" transform="translate(0 3.861)">
        <path id="パス_1088853" data-name="パス 1088853" d="M26.37,42.325a3.305,3.305,0,0,1-2.839,1c-1.432-.3-1.866-1.839-1.866-3.6,0-.3,0-.594.027-.92a87.584,87.584,0,0,1,1.839-8.6,9.612,9.612,0,0,0,.324-2c0-.649-.217-1.135-.866-1.163-.946-.027-2.542,2.083-3.46,3.65a23.811,23.811,0,0,0-1.3,2.732c-.19,1.38-.407,2.7-.569,3.488-.324,1.866-.866,5.326-.946,5.706a.6.6,0,0,1-.594.541c-.242,0-1.352.107-1.622.082-.27-.055-.731-.135-.514-.783.19-.649,1.108-4.895,1.731-8.086a45.313,45.313,0,0,0,1.028-6.733c0-.838-.135-1.432-.514-1.594-1.028-.432-2.46,1.38-3.326,3a45.444,45.444,0,0,0-2,4.623c-.731,3.677-1.649,8.22-1.731,8.572-.107.514-.352.811-.7.838-.324.027-1.622.027-1.946.027-.352,0-.594-.162-.27-1.055s1.677-6.085,2.407-9.762a31.108,31.108,0,0,0,.811-5.706c0-1.731-.379-2.921-1.542-3.326A3.466,3.466,0,0,0,6.878,23.1a5.269,5.269,0,0,0-4.705,3.543,6.246,6.246,0,0,0-.324,1.811A2.059,2.059,0,0,0,3.363,30.7a2.7,2.7,0,0,0,2.515-.866.511.511,0,0,1,.352-.19c.162,0,.3.19.324.569A3.092,3.092,0,0,1,3.5,33.239C1.39,33.267.01,31.508.01,29.265A6.918,6.918,0,0,1,1.5,25.156,8.13,8.13,0,0,1,7.744,22.1a5.685,5.685,0,0,1,2.27.459c1.6.756,2.028,2.353,2.028,4.029a17.662,17.662,0,0,1-.3,2.759c-.027.162-.055.352-.107.569.324-.594.649-1.217.946-1.731,1.108-1.811,2.732-3.488,4.326-3.136,1.594.379,1.921,1.921,1.866,3.6-.027.514-.107,1.325-.217,2.218.27-.487.541-.946.783-1.3.838-1.27,2.325-3.732,4.543-3.246,2.136.459,2.163,2.974,2.108,3.922-.107,2.46-1.325,6.382-1.811,8.193a14.022,14.022,0,0,0-.541,3c0,.541.107.92.432,1.028.811.244,1.542-.459,2.19-1.163" transform="translate(-0.01 -20.914)"/>
        <path id="パス_1088854" data-name="パス 1088854" d="M116.786,31.153c-.3.135-.621.324-1.731.866-.055.244-.107.514-.19.783-2.732,10.626-6.137,13.3-8.41,13.3a2.528,2.528,0,0,1-.783-.107c-1.163-.352-1.731-1.542-1.731-3.056a7.863,7.863,0,0,1,1.325-4.219,17.126,17.126,0,0,1,6.9-6.085c-.082-.055-.19-.107-.27-.162a8.706,8.706,0,0,1-3.46-7.327,13.794,13.794,0,0,1,.082-1.46c.514-4.246,3.136-7.058,5.084-6.761,1.866.27,3.029,1.649,3.029,5.219a40.68,40.68,0,0,1-1.325,8.869c1.083-.541,1.27-.676,1.542-.783.459-.19.811.541-.055.918ZM105.05,42.806c-.19,1.594.3,2.784,1.594,2.595,1.27-.19,2.245-1.866,3-3.785.486-1.19,1.46-4.6,2.353-8-3.488,2-6.489,4.975-6.948,9.193Zm4.6-18.142c-.027.3-.027.594-.027.893a7.874,7.874,0,0,0,2.839,6.22c.379-1.46.7-2.839.946-3.974a42.938,42.938,0,0,0,1.352-7.761c0-1.325-.324-2.218-1.217-2.245-2.325-.082-3.65,3.7-3.894,6.868Z" transform="translate(-80.202 -16.906)"/>
      </g>
    </g>
  </g>
</svg>
